<svg width="35" height="34" viewBox="0 0 35 34" fill="none" xmlns="http://www.w3.org/2000/svg">
<path d="M30.2833 0H4.71632C2.11162 0 0 2.04169 0 4.56032V29.2818C0 31.8004 2.11154 33.8421 4.71632 33.8421H17.3259L17.3473 21.7488H14.098C13.6757 21.7488 13.333 21.4186 13.3314 21.0103L13.3158 17.1121C13.3142 16.7016 13.6579 16.368 14.0825 16.368H17.3259V12.6013C17.3259 8.23018 20.0869 5.85005 24.1196 5.85005H27.4288C27.8522 5.85005 28.1955 6.18195 28.1955 6.59141V9.87838C28.1955 10.2877 27.8525 10.6195 27.4292 10.6197L25.3984 10.6206C23.2053 10.6206 22.7806 11.6283 22.7806 13.1072V16.368H27.5997C28.0589 16.368 28.4151 16.7557 28.361 17.1967L27.8832 21.0948C27.8375 21.4679 27.5103 21.7489 27.1219 21.7489H22.8021L22.7806 33.8423H30.2835C32.8882 33.8423 34.9998 31.8006 34.9998 29.2821V4.56032C34.9997 2.04169 32.8881 0 30.2833 0Z" fill="#0182F9"/>
</svg>
