<svg width="35" height="35" viewBox="0 0 35 35" fill="none" xmlns="http://www.w3.org/2000/svg">
<g clip-path="url(#clip0)">
<path d="M2.28962 2.43742C-0.460799 5.2943 0.102118 8.32909 0.102118 17.5487C0.102118 25.2049 -1.23372 32.8801 5.75753 34.687C7.94066 35.2485 27.284 35.2485 29.4642 34.6841C32.375 33.9331 34.7434 31.572 35.0671 27.4551C35.1123 26.8805 35.1123 8.22701 35.0657 7.64076C34.7215 3.25555 32.0221 0.728257 28.4652 0.216382C27.65 0.0982574 27.4867 0.0632574 23.3042 0.0559657C8.46857 0.0632574 5.21649 -0.597368 2.28962 2.43742Z" fill="url(#paint0_linear)"/>
<path d="M17.497 4.5779C12.2018 4.5779 7.17343 4.10686 5.25281 9.03603C4.45948 11.0719 4.57468 13.7158 4.57468 17.5017C4.57468 20.8237 4.46823 23.946 5.25281 25.9658C7.16906 30.8979 12.2382 30.4254 17.4941 30.4254C22.5647 30.4254 27.7928 30.9533 29.7368 25.9658C30.5316 23.9096 30.4149 21.305 30.4149 17.5017C30.4149 12.4529 30.6934 9.19353 28.2449 6.74644C25.7657 4.26728 22.413 4.5779 17.4911 4.5779H17.497ZM16.3391 6.90686C27.3845 6.88936 28.7903 5.66145 28.0145 22.7196C27.7388 28.7527 23.1451 28.0906 17.4984 28.0906C7.2026 28.0906 6.90656 27.796 6.90656 17.4958C6.90656 7.07603 7.72323 6.91269 16.3391 6.90394V6.90686ZM24.3949 9.05207C23.5388 9.05207 22.8447 9.74623 22.8447 10.6023C22.8447 11.4583 23.5388 12.1525 24.3949 12.1525C25.2509 12.1525 25.9451 11.4583 25.9451 10.6023C25.9451 9.74623 25.2509 9.05207 24.3949 9.05207ZM17.497 10.8648C13.8322 10.8648 10.8616 13.8369 10.8616 17.5017C10.8616 21.1664 13.8322 24.1371 17.497 24.1371C21.1618 24.1371 24.1309 21.1664 24.1309 17.5017C24.1309 13.8369 21.1618 10.8648 17.497 10.8648ZM17.497 13.1937C23.1918 13.1937 23.1991 21.8096 17.497 21.8096C11.8036 21.8096 11.7949 13.1937 17.497 13.1937Z" fill="white"/>
</g>
<defs>
<linearGradient id="paint0_linear" x1="2.35673" y1="32.8205" x2="34.8855" y2="4.66718" gradientUnits="userSpaceOnUse">
<stop stop-color="#FFDD55"/>
<stop offset="0.5" stop-color="#FF543E"/>
<stop offset="1" stop-color="#C837AB"/>
</linearGradient>
<clipPath id="clip0">
<rect width="35" height="35" fill="white"/>
</clipPath>
</defs>
</svg>
