<svg width="35" height="35" viewBox="0 0 35 35" fill="none" xmlns="http://www.w3.org/2000/svg">
<path d="M34.2789 9.83452C33.8754 8.33516 32.6933 7.15329 31.1942 6.74955C28.4553 6 17.4997 6 17.4997 6C17.4997 6 6.54431 6 3.80541 6.72097C2.33516 7.12445 1.12419 8.33542 0.720708 9.83452C0 12.5732 0 18.2528 0 18.2528C0 18.2528 0 23.9611 0.720708 26.6711C1.12445 28.1702 2.30632 29.3524 3.80568 29.7561C6.57315 30.5057 17.4999 30.5057 17.4999 30.5057C17.4999 30.5057 28.4553 30.5057 31.1942 29.7847C32.6935 29.3812 33.8754 28.1991 34.2791 26.7C34.9999 23.9611 34.9999 18.2817 34.9999 18.2817C34.9999 18.2817 35.0287 12.5732 34.2789 9.83452Z" fill="#FF0000"/>
<path d="M14.0115 23.5001L23.1217 18.253L14.0115 13.0059V23.5001Z" fill="white"/>
</svg>
